Coordinates
version=1
nRows=16
nColumns=18
inDegrees=yes

Units are S.I. units (second, meters, Newtons, ...)
If the header above contains a line with 'inDegrees', this indicates whether rotational values are in degrees (yes) or radians (no).

endheader
time	TH_y	TH_x	TH_z	TH_x_trans	TH_y_trans	TH_z_trans	SC_y	SC_z	SC_x	AC_y	AC_z	AC_x	GH_y	GH_z	GH_yy	EL_x	PS_y
     17.41000000	   -146.10107421	     -0.53555105	     -2.37597388	      0.06439551	      1.50929123	      0.00108770	    -18.24137007	      6.36727753	      4.16250791	     56.97428371	      2.51116783	     -2.51647926	     -1.16249763	     -9.13326146	     -2.21987924	      6.56803459	     71.37630540
     17.42000000	   -146.17490210	     -0.48634485	     -2.40358043	      0.06413883	      1.50932523	      0.00077670	    -18.37704351	      6.28483431	      4.32410341	     57.10646085	      2.64805194	     -2.44722714	     -1.10532861	     -8.95739100	     -2.14889865	      6.77332829	     71.34575349
     17.43000000	   -146.28499851	     -0.44763165	     -2.41957967	      0.06382296	      1.50935912	      0.00050283	    -18.44508815	      6.19956648	      4.47067782	     57.44044079	      2.75645636	     -2.34470087	     -0.98237612	     -8.73484363	     -2.02756816	      6.99259540	     70.61779837
     17.44000000	   -146.37023573	     -0.40634525	     -2.43716215	      0.06353382	      1.50942297	      0.00020720	    -18.58767710	      6.11597516	      4.64169778	     57.56979646	      2.90909332	     -2.28695855	     -0.90767530	     -8.55303971	     -1.93741600	      7.32620142	     70.59727412
     17.45000000	   -146.46336796	     -0.38558073	     -2.43436546	      0.06323257	      1.50948034	     -0.00005492	    -18.73608898	      6.01153787	      4.83448236	     57.81068784	      3.07129502	     -2.19931475	     -0.68931665	     -8.37359501	     -1.69077782	      7.63381303	     69.75582244
     17.46000000	   -146.54133329	     -0.35761438	     -2.42974745	      0.06295131	      1.50956350	     -0.00034782	    -18.90396495	      5.90603631	      5.01565433	     57.93990846	      3.23812843	     -2.15406878	     -0.60088488	     -8.18323433	     -1.58508326	      8.07624335	     69.70601493
     17.47000000	   -146.63222252	     -0.33140048	     -2.42620641	      0.06265250	      1.50963331	     -0.00062936	    -19.06419038	      5.80931794	      5.22003259	     58.09185304	      3.42881280	     -2.10152868	     -0.35548006	     -8.03308528	     -1.30040552	      8.53109161	     68.87204157
     17.48000000	   -146.70614099	     -0.31083278	     -2.40944962	      0.06238361	      1.50968973	     -0.00092668	    -19.24188829	      5.70361213	      5.40278444	     58.22001276	      3.60198817	     -2.06577850	     -0.26671273	     -7.83612210	     -1.19567606	      9.09764168	     68.81616031
     17.49000000	   -146.79239881	     -0.28289823	     -2.39798392	      0.06209132	      1.50974699	     -0.00122475	    -19.38289384	      5.60727059	      5.58136711	     58.41603022	      3.77663141	     -2.03675838	     -0.08300367	     -7.64730401	     -0.99266680	      9.71227971	     67.98794490
     17.50000000	   -146.84981286	     -0.25760031	     -2.38649045	      0.06183705	      1.50978406	     -0.00152975	    -19.58492528	      5.51172309	      5.75612655	     58.54722164	      3.95267061	     -2.02224590	     -0.01141881	     -7.43621408	     -0.91086622	     10.42343963	     67.94094262
     17.51000000	   -146.92351251	     -0.22840374	     -2.37244316	      0.06155520	      1.50979580	     -0.00183992	    -19.67649572	      5.43043113	      5.86379386	     58.93665791	      4.06437778	     -2.00824651	      0.00817699	     -7.13258435	     -0.92522454	     11.22492069	     67.21533105
     17.52000000	   -146.95599641	     -0.20229219	     -2.35812679	      0.06135430	      1.50978144	     -0.00217221	    -19.89311005	      5.34492592	      6.02165563	     59.04709452	      4.23575313	     -2.02360775	      0.02943031	     -6.91192233	     -0.90254927	     12.12247133	     67.17529153
     17.53000000	   -147.05586876	     -0.16132071	     -2.37963742	      0.06094930	      1.50976992	     -0.00244622	    -19.71067678	      5.32203806	      5.86887594	     60.24969843	      4.09785745	     -2.01221661	     -0.50648669	     -6.17928939	     -1.65576058	     13.17856341	     66.68787639
     17.54000000	   -147.10299074	     -0.12542918	     -2.38746771	      0.06068302	      1.50972766	     -0.00276506	    -19.74180298	      5.27751350	      5.84031783	     60.83165422	      4.09234466	     -2.04649112	     -0.93611122	     -5.67144786	     -2.20474848	     14.32977684	     67.27130010
     17.55000000	   -147.18026582	     -0.08226667	     -2.41508183	      0.06031795	      1.50968669	     -0.00305146	    -19.53072996	      5.26547335	      5.60684764	     62.09799544	      3.88829890	     -2.07414124	     -1.68943638	     -4.83144603	     -3.18861969	     15.60089003	     67.27910150
     17.56000000	   -147.20877853	     -0.04599561	     -2.40416822	      0.06013272	      1.50963168	     -0.00339883	    -19.58722563	      5.20096902	      5.56997805	     62.56751201	      3.88290385	     -2.15480154	     -2.14076670	     -4.34698568	     -3.73464377	     16.93791893	     67.96117420
